<?xml version="1.0" encoding="iso-8859-1"?>
<!-- Generator: Adobe Illustrator 19.1.0, SVG Export Plug-In . SVG Version: 6.00 Build 0)  -->
<svg version="1.1" id="Capa_1" xmlns="http://www.w3.org/2000/svg" xmlns:xlink="http://www.w3.org/1999/xlink" x="0px" y="0px"
	 viewBox="0 0 217.228 217.228" style="enable-background:new 0 0 217.228 217.228;" xml:space="preserve">
<g>
	<g id="group-109svg">
		<path id="path-1_11_" style="fill:#142A3B;" d="M82.665,173.696H64.46c-3.51,0-6.356,2.149-6.356,4.8s2.846,4.801,6.356,4.801
			h0.847c3.511,0,6.356,2.149,6.356,4.8s-2.845,4.801-6.356,4.801H26.172c-3.51,0-6.355,2.149-6.355,4.8s2.845,4.801,6.355,4.801
			h47.031h96.129c3.51,0,6.355-2.15,6.355-4.801s-2.845-4.8-6.355-4.8h-10.861c-3.511,0-6.356-2.15-6.356-4.801s2.845-4.8,6.356-4.8
			h42.658c3.51,0,6.355-2.15,6.355-4.801s-2.845-4.8-6.355-4.8h-3.184H82.665z"/>
		<path id="path-2_11_" style="fill:#142A3B;" d="M195.571,203.783c-2.943,0-5.328-2.302-5.328-5.144
			c0-2.841,2.385-5.145,5.328-5.145H211.9c2.943,0,5.328,2.304,5.328,5.145c0,2.842-2.385,5.144-5.328,5.144H195.571z"/>
		<path id="path-3_11_" style="fill:#FF3A2F;" d="M134.917,165.689c0,7.379,5.955,13.36,13.299,13.36
			c7.343,0,13.298-5.981,13.298-13.36c0-7.377-5.955-13.361-13.298-13.361C140.872,152.328,134.917,158.312,134.917,165.689z"/>
		<path id="path-4_11_" style="fill:#FF3A2F;" d="M66.524,165.689c0,7.379,5.955,13.36,13.299,13.36
			c7.343,0,13.298-5.981,13.298-13.36c0-7.377-5.955-13.361-13.298-13.361C72.479,152.328,66.524,158.312,66.524,165.689z"/>
		<path id="path-5_11_" style="fill:#0CB04A;" d="M62.703,124.828h114.995l26.596-80.163H44.712l0,0"/>
		<path id="path-6_11_" style="opacity:0.35;enable-background:new    ;" d="M180.588,44.666l-8.786,26.479
			c-8.073,24.334-30.868,40.764-56.555,40.764H59.803l2.9,12.92h114.995l26.597-80.163H180.588z"/>
		<path id="path-7_11_" style="fill:#142A3B;" d="M164.399,146.261H64.067L31.84,20.683H3.621c-2,0-3.621-1.621-3.621-3.62
			s1.621-3.619,3.621-3.619h33.837L69.686,139.02h94.713c2,0,3.621,1.622,3.621,3.622
			C168.02,144.641,166.399,146.261,164.399,146.261z"/>
	</g>
</g>
<g>
</g>
<g>
</g>
<g>
</g>
<g>
</g>
<g>
</g>
<g>
</g>
<g>
</g>
<g>
</g>
<g>
</g>
<g>
</g>
<g>
</g>
<g>
</g>
<g>
</g>
<g>
</g>
<g>
</g>
</svg>
